<?xml version="1.0" encoding="UTF-8" standalone="no"?>
<!-- Created with Inkscape (http://www.inkscape.org/) -->

<svg
   width="120.3172mm"
   height="131.08298mm"
   viewBox="0 0 120.3172 131.08298"
   version="1.1"
   id="svg1"
   xml:space="preserve"
   xmlns="http://www.w3.org/2000/svg"
   xmlns:svg="http://www.w3.org/2000/svg"><defs
     id="defs1" /><g
     id="layer1"
     transform="translate(-45.319119,-22.083818)"><g
       id="g147"
       transform="translate(-2.6169559,7.4147085)"
       style="display:inline"><path
         style="fill:#ffd42a;fill-opacity:1;stroke:none;stroke-width:11.265;stroke-dasharray:none;stroke-opacity:1"
         d="m 81.779872,80.907549 -27.805157,45.142501 2.725997,10.6859 8.505105,6.97855 h 83.633553 l 11.88534,-7.30567 2.726,-9.15935 -35.65603,-58.009192 -1.7649,0.10315 c 0,0 -3.66408,-1.870644 -14.34112,3.97079 -10.64018,5.821261 -18.658876,7.324771 -24.364483,6.129681 -5.70561,-1.1951 -5.544305,1.46364 -5.544305,1.46364 z"
         id="path133" /><path
         d="m 122.87943,69.137168 c -1.32307,0.15239 -3.12275,0.57039 -5.45962,1.47433 3.52217,5.297091 33.14961,49.990422 32.85898,54.785812 -0.30842,5.08878 -8.17314,6.18618 -8.17314,6.18618 L 81.338294,131.738 c 0,0 -12.171807,0.75256 -15.255916,-6.95771 -3.084108,-7.71027 13.570231,-35.930111 13.570231,-35.930111 l -8.9948,14.083381 -10.625708,13.28188 -3.516064,5.70818 -1.145666,9.59786 1.071769,4.20129 12.252999,6.02909 h 81.561951 l 5.28495,-2.15697 5.18263,-3.18585 0.13642,-0.45786 -0.68161,-11.97291 z"
         style="display:inline;fill:#f2ba00;stroke-width:11.265"
         id="path134" /><g
         id="g143"
         transform="translate(26.605718,-30.967312)"><g
           id="g138"><path
             d="m 130.36879,147.68039 a 11.667261,11.667261 0 0 0 -9.44387,-4.83846 11.667261,11.667261 0 0 0 -11.66699,11.6675 11.667261,11.667261 0 0 0 11.66699,11.66751 11.667261,11.667261 0 0 0 11.6675,-11.66751 11.667261,11.667261 0 0 0 -1.28054,-5.29477 z"
             style="fill:#f2ba00;stroke-width:11.265"
             id="path135" /><circle
             style="fill:#f2ba00;fill-opacity:1;stroke:none;stroke-width:8.17019;stroke-dasharray:none;stroke-opacity:1"
             id="circle135"
             cx="60.844219"
             cy="147.20378"
             r="7.1966286" /><circle
             style="fill:#f2ba00;fill-opacity:1;stroke:none;stroke-width:10.0133;stroke-dasharray:none;stroke-opacity:1"
             id="circle136"
             cx="87.013786"
             cy="119.72574"
             r="9.5955048" /><circle
             style="fill:#f2ba00;fill-opacity:1;stroke:none;stroke-width:10.0501;stroke-dasharray:none;stroke-opacity:1"
             id="circle137"
             cx="95.191772"
             cy="150.36592"
             r="9.9226246" /><path
             d="m 42.079085,133.13554 a 11.013022,11.013022 0 0 0 7.315833,2.94608 11.013022,11.013022 0 0 0 11.013281,-11.01277 11.013022,11.013022 0 0 0 -7.042981,-10.25674 z"
             style="fill:#f2ba00;stroke-width:12.5029"
             id="path137" /><path
             d="m 83.742175,174.68184 a 11.776301,11.776301 0 0 0 1.745113,-6.10608 11.776301,11.776301 0 0 0 -11.776542,-11.77655 11.776301,11.776301 0 0 0 -11.776025,11.77655 11.776301,11.776301 0 0 0 1.745113,6.10608 z"
             style="fill:#f2ba00;stroke-width:11.265"
             id="path138" /></g><path
           style="fill:#000000;fill-opacity:1;stroke:none;stroke-width:11.265;stroke-dasharray:none;stroke-opacity:1"
           d="M 105.41948,113.74483 H 90.936773 c 0,0 -3.035617,0.25363 -3.054913,-3.31502 -0.01643,-3.03855 3.065403,-3.04596 3.065403,-3.04596 h 14.534157 z"
           id="path139" /><path
           style="fill:#000000;fill-opacity:1;stroke:none;stroke-width:11.265;stroke-dasharray:none;stroke-opacity:1"
           d="M 97.483873,71.744159 H 83.001166 c 0,0 -3.035617,0.253633 -3.054913,-3.315019 -0.01643,-3.038546 3.065403,-3.045964 3.065403,-3.045964 h 14.534155 z"
           id="path140" /><path
           style="fill:#000000;fill-opacity:1;stroke:none;stroke-width:11.265;stroke-dasharray:none;stroke-opacity:1"
           d="M 98.75994,92.360081 H 84.277233 c 0,0 -3.035617,0.253633 -3.054913,-3.315019 -0.01643,-3.038546 3.065403,-3.045964 3.065403,-3.045964 h 14.534155 z"
           id="path141" /><path
           style="fill:#000000;fill-opacity:1;stroke:none;stroke-width:11.265;stroke-dasharray:none;stroke-opacity:1"
           d="m 118.05684,130.2773 h -14.4827 c 0,0 -3.03562,0.25363 -3.05491,-3.31502 -0.0164,-3.03855 3.0654,-3.04596 3.0654,-3.04596 h 14.53415 z"
           id="path142" /><path
           style="fill:#000000;fill-opacity:1;stroke:none;stroke-width:11.265;stroke-dasharray:none;stroke-opacity:1"
           d="m 129.25273,146.65582 h -14.4827 c 0,0 -3.03562,0.25363 -3.05491,-3.31502 -0.0164,-3.03855 3.0654,-3.04596 3.0654,-3.04596 h 14.53415 z"
           id="path143" /></g><path
         style="fill:none;stroke:#000000;stroke-width:6.365;stroke-dasharray:none;stroke-opacity:1"
         d="m 92.650882,64.164317 v -32.76869 c 0,-9.571515 -9.887633,-12.375921 -12.621887,-13.184579 -2.734254,-0.808658 48.164725,0 55.182635,0 2.25753,0 -11.89793,2.424015 -11.79673,12.64486 0.0771,7.787383 0,32.845795 0,32.845795 l 36.65557,55.478837 c 0,0 11.39467,17.82801 -9.70454,23.38904 H 67.059495 c 0,0 -20.172369,-3.87091 -10.467824,-23.49808 z"
         id="path144" /><g
         id="g146"
         transform="translate(3.5983144,-27.061251)"><path
           style="fill:none;fill-opacity:1;stroke:#000000;stroke-width:10.865;stroke-linecap:round;stroke-dasharray:none;stroke-dashoffset:0;stroke-opacity:1;paint-order:normal"
           d="m 77.022747,60.06224 c 0,0 -3.448712,-4.257639 -11.489809,-8.316696 -2.332175,-1.177256 -14.175179,-8.190752 -14.175179,-0.981358 v 67.466534 c 0,3.85179 25.866977,-32.946877 25.866977,-32.946877"
           id="path145"
           transform="translate(-1.5875)" /><path
           style="fill:none;fill-opacity:1;stroke:#000000;stroke-width:10.865;stroke-linecap:round;stroke-dasharray:none;stroke-dashoffset:0;stroke-opacity:1;paint-order:normal"
           d="m 51.357759,47.487512 v 70.427048 c 0,3.85179 25.348235,-32.428136 25.348235,-32.428136"
           id="path146"
           transform="matrix(-1,0,0,1,210.58022,0)" /></g></g></g></svg>
